<?xml version="1.0" encoding="utf-8"?>
<!-- Generator: Adobe Illustrator 23.0.3, SVG Export Plug-In . SVG Version: 6.00 Build 0)  -->
<svg version="1.1" id="Layer_1" xmlns="http://www.w3.org/2000/svg" xmlns:xlink="http://www.w3.org/1999/xlink" x="0px" y="0px"
	 viewBox="0 0 1526.7 512" style="enable-background:new 0 0 1526.7 512;" xml:space="preserve">
<style type="text/css">
	.st0{fill:#4533C4;}
</style>
<g>
	<g>
		<g>
			<path class="st0" d="M277.5,397.7c-3.2,0-6.4-1.5-8.5-4.3c-3.4-4.7-2.4-11.3,2.3-14.7l169.2-123L271.4,133.3
				c-4.7-3.4-5.8-10-2.4-14.7c3.4-4.7,10-5.8,14.7-2.4l180.9,130.9c2.7,2,4.3,5.1,4.3,8.5s-1.6,6.5-4.3,8.5L283.7,395.7
				C281.8,397,279.7,397.7,277.5,397.7z"/>
		</g>
	</g>
	<g>
		<g>
			<path d="M92,397.7c-2.7,0-5.4-1-7.4-3.1c-4.1-4.1-4.1-10.7,0-14.8l124.1-124.1l-124-123.4c-4.1-4.1-4.1-10.7,0-14.8
				c4.1-4.1,10.7-4.1,14.8,0L231,248.4c2,2,3.1,4.6,3.1,7.4c0,2.8-1.1,5.5-3.1,7.4L99.4,394.6C97.3,396.7,94.6,397.7,92,397.7z"/>
		</g>
	</g>
</g>
<g>
	<path d="M594.8,378.7c-16.5,0-30.5-1.7-42.1-5.1c-11.6-3.4-22.4-7.6-32.6-12.6v-37.9h2.1c10,9.4,21.3,16.6,33.9,21.8
		c12.6,5.1,24.8,7.7,36.5,7.7c16.7,0,29.3-3.5,37.9-10.5c8.6-7,12.8-16.2,12.8-27.6c0-9.1-2.2-16.4-6.7-22.2
		c-4.5-5.7-11.6-9.9-21.4-12.7c-7-2-13.4-3.7-19.3-5c-5.8-1.3-13.1-3.1-21.8-5.3c-7.8-2-14.9-4.6-21.1-7.8
		c-6.2-3.2-11.7-7.3-16.5-12.4c-4.7-5-8.3-10.9-10.9-17.6c-2.6-6.8-3.9-14.6-3.9-23.5c0-18.4,7.2-33.9,21.5-46.4
		c14.4-12.5,32.7-18.7,55-18.7c12.7,0,24.8,1.3,36.1,3.8c11.4,2.5,21.9,6.2,31.6,10.8v36.2h-2.3c-7.2-6.6-16.5-12.4-27.8-17.3
		c-11.3-4.9-23.2-7.4-35.6-7.4c-14.1,0-25.4,3.3-34.1,9.9c-8.7,6.6-13,15.2-13,25.9c0,9.7,2.5,17.4,7.6,23.1
		c5.1,5.7,12.5,9.9,22.2,12.5c6.4,1.7,14.3,3.7,23.5,5.9c9.3,2.2,17,4.2,23.1,6c15.7,4.8,27.1,12,34.4,21.7
		c7.2,9.7,10.8,21.6,10.8,35.8c0,8.9-1.8,17.6-5.4,26.3c-3.6,8.7-8.7,16-15.2,22c-7.3,6.6-15.6,11.7-24.8,15.3
		C620.2,376.9,608.7,378.7,594.8,378.7z"/>
	<path d="M846.7,284.7c0,28.4-6.8,51.1-20.4,67.9c-13.6,16.9-30.8,25.3-51.6,25.3c-8.5,0-15.9-1-22.5-2.9c-6.5-1.9-13.2-4.9-20-9
		v71.5h-28.7V203.9h28.7v17.9c7.1-6.4,15-11.8,23.8-16.1c8.7-4.3,18.2-6.5,28.5-6.5c19.6,0,34.8,7.7,45.8,23.2
		C841.2,237.9,846.7,258.7,846.7,284.7z M817,287.9c0-19.5-3.1-34.6-9.3-45.3c-6.2-10.7-16.3-16.1-30.3-16.1c-8.2,0-16,1.8-23.6,5.4
		c-7.6,3.6-14.8,8.3-21.6,14v96.7c7.5,3.7,14,6.2,19.3,7.5c5.3,1.3,11.5,2,18.4,2c14.9,0,26.4-5.4,34.7-16.3
		C812.9,324.9,817,308.9,817,287.9z"/>
	<path d="M950.5,378.5c-27.2,0-48.3-7.7-63.3-23c-15-15.3-22.5-37.1-22.5-65.3c0-27.8,7.3-49.9,21.8-66.4
		c14.6-16.4,33.6-24.7,57.1-24.7c10.6,0,20,1.5,28.1,4.6c8.1,3.1,15.3,7.8,21.4,14.4c6.1,6.5,10.8,14.5,14.1,23.9
		c3.3,9.4,4.9,21,4.9,34.6v15.6H893.9c0,19.9,5,35,15,45.5c10,10.5,23.8,15.7,41.4,15.7c6.3,0,12.5-0.7,18.6-2.1
		c6.1-1.4,11.5-3.3,16.4-5.5c5.2-2.3,9.6-4.6,13.1-6.8c3.6-2.2,6.5-4.3,8.9-6.2h1.7v31.3c-3.4,1.3-7.5,3-12.5,5
		c-5,2-9.5,3.5-13.4,4.7c-5.6,1.5-10.7,2.7-15.2,3.5C963.2,378.1,957.5,378.5,950.5,378.5z M984.2,270.2c-0.2-7.7-1.1-14.4-2.8-20
		c-1.6-5.6-4-10.3-7-14.2c-3.4-4.3-7.7-7.5-12.9-9.8c-5.2-2.2-11.7-3.4-19.5-3.4c-7.6,0-14.1,1.1-19.5,3.4
		c-5.3,2.3-10.2,5.6-14.6,10c-4.3,4.5-7.5,9.4-9.8,14.9c-2.2,5.5-3.7,11.8-4.3,19H984.2z"/>
	<path d="M1115.3,378.5c-27.2,0-48.3-7.7-63.3-23c-15-15.3-22.5-37.1-22.5-65.3c0-27.8,7.3-49.9,21.8-66.4
		c14.6-16.4,33.6-24.7,57.1-24.7c10.6,0,20,1.5,28.1,4.6c8.1,3.1,15.3,7.8,21.4,14.4c6.1,6.5,10.8,14.5,14.1,23.9
		c3.3,9.4,4.9,21,4.9,34.6v15.6h-118.3c0,19.9,5,35,15,45.5c10,10.5,23.8,15.7,41.4,15.7c6.3,0,12.5-0.7,18.6-2.1
		c6.1-1.4,11.5-3.3,16.4-5.5c5.2-2.3,9.6-4.6,13.1-6.8c3.6-2.2,6.5-4.3,8.9-6.2h1.7v31.3c-3.4,1.3-7.5,3-12.5,5
		c-5,2-9.5,3.5-13.4,4.7c-5.6,1.5-10.7,2.7-15.2,3.5C1127.9,378.1,1122.2,378.5,1115.3,378.5z M1148.9,270.2
		c-0.2-7.7-1.1-14.4-2.8-20c-1.6-5.6-4-10.3-7-14.2c-3.4-4.3-7.7-7.5-12.9-9.8c-5.2-2.2-11.7-3.4-19.5-3.4c-7.6,0-14.1,1.1-19.5,3.4
		c-5.3,2.3-10.2,5.6-14.6,10c-4.3,4.5-7.5,9.4-9.8,14.9c-2.2,5.5-3.7,11.8-4.3,19H1148.9z"/>
	<path d="M1337.3,374.6h-28.7v-17.4c-4.5,3.8-8.4,6.9-11.6,9.3c-3.3,2.4-7.1,4.7-11.5,6.7c-4.1,1.9-8.3,3.4-12.7,4.5
		c-4.4,1.1-9.5,1.6-15.3,1.6c-9.3,0-17.9-1.9-25.7-5.8c-7.9-3.9-14.6-9.5-20.1-17c-5.6-7.5-9.9-16.8-13-27.9
		c-3.1-11.1-4.6-23.8-4.6-38.1c0-15,1.9-27.9,5.8-38.9c3.9-10.9,9.2-20.5,16-28.6c6.2-7.4,13.7-13.3,22.5-17.5
		c8.8-4.2,18.1-6.3,27.7-6.3c8.6,0,16,0.9,22.3,2.8c6.3,1.9,13,4.8,20,8.8v-74h28.7V374.6z M1308.5,333v-98.4
		c-7.1-3.5-13.5-5.9-19.2-7.2c-5.7-1.3-11.8-2-18.4-2c-14.8,0-26.3,5.5-34.7,16.6c-8.4,11.1-12.5,27-12.5,47.9
		c0,20.1,3.2,35.4,9.6,46.1c6.4,10.6,16.7,16,30.9,16c7.5,0,15.1-1.7,22.8-5.1C1294.6,343.4,1301.8,338.8,1308.5,333z"/>
</g>
</svg>
