<?xml version="1.0" encoding="utf-8"?>
<!-- Generator: Adobe Illustrator 23.0.3, SVG Export Plug-In . SVG Version: 6.00 Build 0)  -->
<svg version="1.1" id="Layer_1" xmlns="http://www.w3.org/2000/svg" xmlns:xlink="http://www.w3.org/1999/xlink" x="0px" y="0px"
	 viewBox="0 0 512 512" style="enable-background:new 0 0 512 512;" xml:space="preserve">
<style type="text/css">
	.st0{fill:#4533C4;}
</style>
<g>
	<g>
		<g>
			<path class="st0" d="M258.3,397.7c-3.2,0-6.4-1.5-8.5-4.3c-3.4-4.7-2.4-11.3,2.3-14.7l169.2-123L252.2,133.3
				c-4.7-3.4-5.8-10-2.4-14.7c3.4-4.7,10-5.8,14.7-2.4l180.9,130.9c2.7,2,4.3,5.1,4.3,8.5s-1.6,6.5-4.3,8.5L264.5,395.7
				C262.6,397,260.5,397.7,258.3,397.7z"/>
		</g>
	</g>
	<g>
		<g>
			<path d="M72.8,397.7c-2.7,0-5.4-1-7.4-3.1c-4.1-4.1-4.1-10.7,0-14.8l124.1-124.1l-124-123.4c-4.1-4.1-4.1-10.7,0-14.8
				c4.1-4.1,10.7-4.1,14.8,0l131.5,130.9c2,2,3.1,4.6,3.1,7.4s-1.1,5.5-3.1,7.4L80.2,394.6C78.1,396.7,75.4,397.7,72.8,397.7z"/>
		</g>
	</g>
</g>
</svg>
